<?xml version="1.0" standalone="no"?>
<!DOCTYPE svg PUBLIC "-//W3C//DTD SVG 20010904//EN"
 "http://www.w3.org/TR/2001/REC-SVG-20010904/DTD/svg10.dtd">
<svg version="1.0" xmlns="http://www.w3.org/2000/svg"
 width="1563.000000pt" height="1563.000000pt" viewBox="0 0 1563.000000 1563.000000"
 preserveAspectRatio="xMidYMid meet">
<metadata>
Created by potrace 1.14, written by Peter Selinger 2001-2017
</metadata>
<g transform="translate(0.000000,1563.000000) scale(0.100000,-0.100000)"
fill="#000000" stroke="none">
<path d="M2910 15623 c-632 -46 -1235 -281 -1731 -674 -135 -107 -394 -366
-499 -499 -387 -489 -615 -1065 -669 -1695 -15 -167 -15 -9713 0 -9880 37
-431 142 -798 336 -1178 297 -580 791 -1070 1370 -1360 371 -186 743 -291
1158 -327 172 -14 9707 -14 9882 1 171 14 388 51 551 94 397 105 813 314 1142
575 135 106 394 365 499 498 187 237 353 526 464 807 91 229 149 454 194 745
16 108 18 401 21 4990 2 3531 0 4915 -8 5020 -49 628 -279 1215 -671 1712
-105 133 -364 392 -499 498 -245 195 -601 394 -882 494 -251 90 -541 153 -811
175 -89 8 -1587 10 -4965 9 -2660 -1 -4857 -3 -4882 -5z m5230 -3442 c756 -64
1238 -174 1675 -385 242 -117 396 -221 563 -381 320 -306 506 -696 579 -1215
25 -178 25 -609 0 -770 -96 -623 -417 -1106 -947 -1424 -167 -101 -497 -251
-647 -296 -37 -11 -43 -17 -43 -41 0 -25 5 -29 38 -35 258 -45 591 -156 819
-273 346 -178 645 -452 845 -773 112 -180 219 -434 273 -648 102 -403 111
-931 24 -1370 -213 -1064 -1007 -1693 -2374 -1880 -411 -56 -294 -54 -2742
-57 l-2263 -4 0 279 0 279 223 6 c122 4 258 11 302 17 257 34 451 130 566 279
92 119 146 261 169 444 7 54 10 1232 10 3502 0 3769 4 3526 -62 3702 -88 232
-258 381 -514 448 -87 23 -284 43 -501 51 l-193 6 0 280 0 279 2033 -4 c1404
-3 2074 -8 2167 -16z"/>
<path d="M6570 9754 l0 -1776 688 5 c725 5 760 6 1036 57 527 96 871 323 1060
699 126 249 189 600 189 1056 0 286 -15 446 -59 643 -63 282 -154 462 -323
635 -266 274 -652 404 -1326 447 -88 5 -408 10 -712 10 l-553 0 0 -1776z"/>
<path d="M6570 5301 l0 -2011 683 0 c691 0 961 8 1187 36 837 101 1277 461
1434 1174 57 258 82 618 66 957 -31 676 -166 1080 -460 1373 -217 218 -516
357 -908 425 -256 44 -326 47 -1179 52 l-823 5 0 -2011z"/>
</g>
</svg>
